<svg id="Layer_1" data-name="Layer 1" xmlns="http://www.w3.org/2000/svg" viewBox="0 0 300.26 402.52"><defs><style>.cls-1{fill:#40bac8;}.cls-2{fill:#fff;}</style></defs><title>WP-BRAND-Logo-Stacked</title><polygon class="cls-1" points="97.48 287.25 189.77 287.25 189.77 217.04 167.69 194.96 119.55 194.96 97.48 217.03 97.48 287.25"/><polygon class="cls-1" points="217.03 97.48 194.95 119.56 194.95 167.7 217.03 189.77 287.24 189.77 287.24 97.48 217.03 97.48"/><polygon class="cls-1" points="189.77 0 97.48 0 97.48 70.22 119.55 92.29 167.69 92.29 189.77 70.22 189.77 0"/><polygon class="cls-1" points="287.24 287.25 287.24 217.04 265.17 194.96 194.96 194.96 194.96 287.25 287.24 287.25"/><polygon class="cls-1" points="22.07 0 0 22.08 0 92.29 92.29 92.29 92.29 0 22.07 0"/><polygon class="cls-1" points="194.96 0 194.96 70.22 217.03 92.29 287.24 92.29 287.24 0 194.96 0"/><path class="cls-1" d="M143.62,156.85a13.22,13.22,0,1,1,13.22-13.22,13.22,13.22,0,0,1-13.22,13.22" transform="translate(0 0)"/><polygon class="cls-1" points="92.29 97.48 0 97.48 0 189.77 70.21 189.77 92.29 167.7 92.29 97.48"/><polygon class="cls-1" points="92.29 217.03 70.21 194.96 0 194.96 0 287.25 70.21 287.25 92.29 265.18 92.29 217.03"/><path class="cls-2" d="M32.22,388.91a.68.68,0,0,1-.73-.56l-6-21.39h-.11l-6.08,21.39a.68.68,0,0,1-.73.56h-7a.68.68,0,0,1-.73-.56L.36,351.19c-.06-.34.06-.56.45-.56H10a.65.65,0,0,1,.73.56l5,22.3h.11l6-22.3a.68.68,0,0,1,.73-.56h5.8a.68.68,0,0,1,.73.56l6.13,22.3h.11l4.78-22.3a.63.63,0,0,1,.67-.56H50a.39.39,0,0,1,.39.56L40,388.34a.7.7,0,0,1-.79.56Z" transform="translate(0 0)"/><path class="cls-2" d="M58,388.91a.53.53,0,0,1-.56-.56V351.19a.53.53,0,0,1,.56-.56H73.26c9.35,0,14.19,5.29,14.19,12.72s-4.9,12.78-14.19,12.78H67.63a.3.3,0,0,0-.34.34v11.88a.53.53,0,0,1-.56.56Zm19.59-25.56c0-2.64-1.75-4.33-4.84-4.33H67.63a.3.3,0,0,0-.34.34v8.05a.3.3,0,0,0,.34.34H72.7c3.1,0,4.84-1.75,4.84-4.39" transform="translate(0 0)"/><path class="cls-2" d="M100.68,379.58c-.68-2.13-1.06-4.56-1.06-9.57s.38-7.52,1.06-9.57c2-6,6.61-9.11,12.76-9.11s10.78,3,12.76,9.11c.69,2,1.06,4.41,1.06,9a.74.74,0,0,1-.83.76H102.35c-.31,0-.46.23-.46.53a26.12,26.12,0,0,0,.91,8.13c1.82,5.47,5.77,7.9,11.09,7.9a12.93,12.93,0,0,0,10.86-5.24.69.69,0,0,1,1.07-.15l.45.38a.68.68,0,0,1,.08,1.06,14.69,14.69,0,0,1-12.45,6.08c-6.68,0-11.24-3.11-13.21-9.27M124.52,368a.4.4,0,0,0,.46-.46,21.08,21.08,0,0,0-.83-6.3c-1.67-5.24-5.47-7.82-10.71-7.82s-9,2.58-10.7,7.82a21.11,21.11,0,0,0-.84,6.3.4.4,0,0,0,.46.46Z" transform="translate(0 0)"/><path class="cls-2" d="M161.35,388.09a.72.72,0,0,1-.76-.76V365.77c0-8.51-3.49-12.3-10.55-12.3-6,0-11,4.1-11,11.16v22.71a.72.72,0,0,1-.76.76h-.76a.72.72,0,0,1-.76-.76V352.86a.72.72,0,0,1,.76-.76h.76a.72.72,0,0,1,.76.76v5.09h.08c1.82-4.18,5.92-6.6,11.09-6.6,8.13,0,12.68,4.63,12.68,13.89v22.1a.71.71,0,0,1-.76.76Z" transform="translate(0 0)"/><path class="cls-2" d="M173.72,397.35a.73.73,0,0,1,.15-1.06l.61-.38a.76.76,0,0,1,1.06.23c2,2.66,5.24,4.25,9.57,4.25,6.83,0,11.24-3.34,11.24-12.22v-6.07h-.08c-1.75,4-4.94,6.76-11.24,6.76-6.07,0-10.17-3.19-11.92-8.58a43.22,43.22,0,0,1,0-20.35c1.75-5.39,5.85-8.58,11.92-8.58,6.3,0,9.49,2.73,11.24,6.76h.08v-5.24a.72.72,0,0,1,.76-.76h.76a.72.72,0,0,1,.76.76v35.31c0,9.95-5.39,14.35-13.52,14.35-5.24,0-9.64-2.36-11.39-5.17m21.64-17.84c.76-2.2,1-4.93,1-9.42s-.23-7.21-1-9.41c-1.75-5.32-5.62-7.21-10.1-7.21a9.74,9.74,0,0,0-9.95,7.14,40.09,40.09,0,0,0,0,19,9.74,9.74,0,0,0,9.95,7.14c4.48,0,8.35-1.9,10.1-7.21" transform="translate(0 0)"/><path class="cls-2" d="M211,341a.72.72,0,0,1-.76-.76v-3a.72.72,0,0,1,.76-.76h1.82a.72.72,0,0,1,.76.76v3a.72.72,0,0,1-.76.76Zm.53,47.08a.72.72,0,0,1-.76-.76V352.86a.72.72,0,0,1,.76-.76h.76a.72.72,0,0,1,.76.76v34.48a.72.72,0,0,1-.76.76Z" transform="translate(0 0)"/><path class="cls-2" d="M249.81,388.09a.72.72,0,0,1-.76-.76V365.77c0-8.51-3.49-12.3-10.55-12.3-6,0-11,4.1-11,11.16v22.71a.72.72,0,0,1-.76.76H226a.72.72,0,0,1-.76-.76V352.86a.72.72,0,0,1,.76-.76h.76a.72.72,0,0,1,.76.76v5.09h.08c1.82-4.18,5.92-6.6,11.09-6.6,8.12,0,12.68,4.63,12.68,13.89v22.1a.71.71,0,0,1-.76.76Z" transform="translate(0 0)"/><path class="cls-2" d="M261.42,379.58c-.68-2.13-1.06-4.56-1.06-9.57s.38-7.52,1.06-9.57c2-6,6.61-9.11,12.76-9.11s10.78,3,12.76,9.11c.68,2,1.06,4.41,1.06,9a.74.74,0,0,1-.83.76H263.09c-.3,0-.46.23-.46.53a26.08,26.08,0,0,0,.91,8.13c1.82,5.47,5.77,7.9,11.09,7.9a12.93,12.93,0,0,0,10.86-5.24.69.69,0,0,1,1.06-.15l.45.38a.68.68,0,0,1,.08,1.06,14.69,14.69,0,0,1-12.45,6.08c-6.68,0-11.24-3.11-13.21-9.27M285.27,368a.4.4,0,0,0,.45-.46,21.1,21.1,0,0,0-.83-6.3c-1.67-5.24-5.47-7.82-10.71-7.82s-9,2.58-10.7,7.82a21.07,21.07,0,0,0-.84,6.3.4.4,0,0,0,.46.46Z" transform="translate(0 0)"/><path class="cls-2" d="M291.55,355.61a4.35,4.35,0,1,1,4.36,4.36A4.26,4.26,0,0,1,291.55,355.61Zm8,0a3.67,3.67,0,1,0-3.66,3.71A3.58,3.58,0,0,0,299.58,355.61ZM294.47,358a.18.18,0,0,1-.2-.2v-4.48a.18.18,0,0,1,.2-.2h1.79a1.37,1.37,0,0,1,1.54,1.42,1.28,1.28,0,0,1-.95,1.33l.95,1.9c.09.16,0,.23-.14.23h-.38a.28.28,0,0,1-.23-.16L296.1,356h-1s-.07,0-.07,0v1.79a.19.19,0,0,1-.2.2Zm2.62-3.46c0-.47-.25-.77-.86-.77h-1.15s-.07,0-.07,0v1.42s0,0,.07,0h1.15C296.84,355.31,297.09,355,297.09,354.57Z" transform="translate(0 0)"/></svg>