<svg id="Layer_1" data-name="Layer 1" xmlns="http://www.w3.org/2000/svg" viewBox="0 0 57.92 65"><defs><style>.cls-1{fill:#fff;}</style></defs><title>WP-ICON-Envelope</title><g id="envelope"><path class="cls-1" d="M57.92,25a1.1,1.1,0,0,0-.45-1L29.91.34a1.22,1.22,0,0,0-1.69,0L.45,24A1.67,1.67,0,0,0,0,25V60.05a3.59,3.59,0,0,0,.34,1.57v.22c.11.34.34.56.45.9l.11.11a2.45,2.45,0,0,0,.45.56.11.11,0,0,0,.11.11,4.28,4.28,0,0,0,1.46,1,.11.11,0,0,1,.11.11c.22.11.45.11.67.22h.22c.34,0,.56.11.9.11H53a2.48,2.48,0,0,0,.9-.11c.11,0,.34-.11.45-.11s.22-.11.34-.11a5.34,5.34,0,0,0,2.7-2.25c0-.11.11-.11.11-.22s.11-.22.11-.34.11-.11.11-.22a.68.68,0,0,0,.11-.45,4.22,4.22,0,0,0,.11-1.24V25ZM53.08,62.3H4.95a2.29,2.29,0,0,1-1.69-.67L21.37,45.54c.11,0,.22-.11.34-.11s.11-.11.11-.22L29,38.8,54.77,61.74A2.76,2.76,0,0,1,53.08,62.3ZM2.7,30l16,14.28L2.7,58.59ZM39.36,44.31l16-14.17V58.48ZM29.13,3l26.2,22.49v1l-18,16-7.42-6.63a1.37,1.37,0,0,0-1.8,0l-7.42,6.63L2.7,26.43v-1Z"/></g></svg>